<?xml version="1.0" standalone="no"?>
<!DOCTYPE svg PUBLIC "-//W3C//DTD SVG 20010904//EN"
 "http://www.w3.org/TR/2001/REC-SVG-20010904/DTD/svg10.dtd">
<svg version="1.0" xmlns="http://www.w3.org/2000/svg"
 width="256.000000pt" height="256.000000pt" viewBox="0 0 256.000000 256.000000"
 preserveAspectRatio="xMidYMid meet">

<g transform="translate(0.000000,256.000000) scale(0.100000,-0.100000)"
fill="#000000" stroke="none">
<path d="M0 1280 l0 -1280 1280 0 1280 0 0 1280 0 1280 -1280 0 -1280 0 0
-1280z m1420 394 c256 -184 470 -345 477 -357 20 -35 15 -55 -19 -91 -31 -31
-866 -638 -915 -664 -34 -18 -52 -14 -84 17 l-29 29 0 674 c0 524 3 678 13
690 16 21 48 37 72 38 11 0 230 -151 485 -336z"/>
</g>
</svg>
